<?xml version="1.0" standalone="no"?>
<!DOCTYPE svg PUBLIC "-//W3C//DTD SVG 20010904//EN"
 "http://www.w3.org/TR/2001/REC-SVG-20010904/DTD/svg10.dtd">
<svg version="1.0" xmlns="http://www.w3.org/2000/svg"
 width="880.000000pt" height="738.000000pt" viewBox="0 0 880.000000 738.000000"
 preserveAspectRatio="xMidYMid meet">

<g transform="translate(0.000000,738.000000) scale(0.100000,-0.100000)"
fill="#000000" stroke="none">
<path d="M3665 4960 c-50 -4 -119 -16 -154 -25 -154 -44 -304 -190 -352 -345
-35 -112 -41 -287 -36 -1002 4 -716 6 -741 55 -850 47 -105 165 -223 270 -270
116 -52 129 -53 952 -53 823 0 836 1 952 53 105 47 223 165 270 270 52 116 53
130 53 952 0 822 -1 836 -53 952 -47 105 -165 223 -270 270 -110 50 -129 51
-887 53 -390 2 -751 -1 -800 -5z m824 -644 c45 -36 82 -67 82 -71 0 -10 -159
-135 -171 -135 -15 0 -169 123 -169 135 0 10 156 135 169 135 4 0 44 -29 89
-64z m-297 -426 c112 -88 205 -160 208 -160 3 0 96 72 208 161 125 99 207 157
215 153 27 -16 97 -77 97 -84 0 -11 -507 -410 -520 -410 -14 0 -520 399 -520
410 0 7 97 90 106 90 2 0 95 -72 206 -160z m-172 -415 c206 -162 377 -295 380
-295 3 0 173 133 379 295 206 162 377 295 381 295 13 0 111 -82 108 -90 -2 -4
-198 -161 -436 -348 l-432 -341 -433 340 c-237 188 -433 345 -435 349 -3 8 95
90 107 90 4 0 176 -133 381 -295z"/>
</g>
</svg>
